<mxfile host="app.diagrams.net" modified="2022-09-12T07:12:36.604Z" agent="5.0 (Windows NT 10.0; Win64; x64) AppleWebKit/537.36 (KHTML, like Gecko) Chrome/105.0.0.0 Safari/537.36" etag="9s1WMl2fP09eOehCwer3" version="20.3.0" type="github">
  <diagram id="pgk8kaQqnfI05cRpfvjx" name="Sivu-1">
    <mxGraphModel dx="782" dy="468" grid="1" gridSize="10" guides="1" tooltips="1" connect="1" arrows="1" fold="1" page="1" pageScale="1" pageWidth="827" pageHeight="1169" math="0" shadow="0">
      <root>
        <mxCell id="0" />
        <mxCell id="1" parent="0" />
        <mxCell id="P9AUPLrVdqZUNTlDOWA3-1" value="Liikeanturi" style="ellipse;whiteSpace=wrap;html=1;aspect=fixed;" parent="1" vertex="1">
          <mxGeometry x="80" y="130" width="80" height="80" as="geometry" />
        </mxCell>
        <mxCell id="P9AUPLrVdqZUNTlDOWA3-2" value="" style="endArrow=classic;html=1;rounded=0;" parent="1" target="P9AUPLrVdqZUNTlDOWA3-3" edge="1">
          <mxGeometry width="50" height="50" relative="1" as="geometry">
            <mxPoint x="190" y="170" as="sourcePoint" />
            <mxPoint x="320" y="170" as="targetPoint" />
          </mxGeometry>
        </mxCell>
        <mxCell id="P9AUPLrVdqZUNTlDOWA3-3" value="Rasberry pi" style="whiteSpace=wrap;html=1;aspect=fixed;" parent="1" vertex="1">
          <mxGeometry x="334" y="130" width="80" height="80" as="geometry" />
        </mxCell>
        <mxCell id="P9AUPLrVdqZUNTlDOWA3-4" value="Anturi datan tyyppi = Digitaalinen&amp;nbsp;" style="text;html=1;align=center;verticalAlign=middle;resizable=0;points=[];autosize=1;strokeColor=none;fillColor=none;" parent="1" vertex="1">
          <mxGeometry x="120" y="105" width="200" height="30" as="geometry" />
        </mxCell>
        <mxCell id="P9AUPLrVdqZUNTlDOWA3-5" value="-Pythonkoodilla" style="text;html=1;align=center;verticalAlign=middle;resizable=0;points=[];autosize=1;strokeColor=none;fillColor=none;" parent="1" vertex="1">
          <mxGeometry x="319" y="210" width="110" height="30" as="geometry" />
        </mxCell>
        <mxCell id="P9AUPLrVdqZUNTlDOWA3-6" value="" style="endArrow=classic;html=1;rounded=0;exitX=0.5;exitY=1.044;exitDx=0;exitDy=0;exitPerimeter=0;" parent="1" source="P9AUPLrVdqZUNTlDOWA3-5" edge="1">
          <mxGeometry width="50" height="50" relative="1" as="geometry">
            <mxPoint x="380" y="300" as="sourcePoint" />
            <mxPoint x="374" y="320" as="targetPoint" />
          </mxGeometry>
        </mxCell>
        <mxCell id="P9AUPLrVdqZUNTlDOWA3-7" value="MariaDB" style="text;html=1;align=center;verticalAlign=middle;resizable=0;points=[];autosize=1;strokeColor=none;fillColor=none;" parent="1" vertex="1">
          <mxGeometry x="334" y="335" width="70" height="30" as="geometry" />
        </mxCell>
        <mxCell id="P9AUPLrVdqZUNTlDOWA3-8" value="Käyttöliittymä &lt;br&gt;PHP&lt;br&gt;javascript" style="text;html=1;align=center;verticalAlign=middle;resizable=0;points=[];autosize=1;strokeColor=none;fillColor=none;" parent="1" vertex="1">
          <mxGeometry x="450" y="330" width="90" height="60" as="geometry" />
        </mxCell>
        <mxCell id="P9AUPLrVdqZUNTlDOWA3-9" value="" style="endArrow=classic;startArrow=classic;html=1;rounded=0;exitX=0.986;exitY=0.633;exitDx=0;exitDy=0;exitPerimeter=0;entryX=0.333;entryY=0.417;entryDx=0;entryDy=0;entryPerimeter=0;" parent="1" source="P9AUPLrVdqZUNTlDOWA3-7" target="P9AUPLrVdqZUNTlDOWA3-8" edge="1">
          <mxGeometry width="50" height="50" relative="1" as="geometry">
            <mxPoint x="380" y="290" as="sourcePoint" />
            <mxPoint x="430" y="240" as="targetPoint" />
          </mxGeometry>
        </mxCell>
        <mxCell id="P9AUPLrVdqZUNTlDOWA3-10" value="WebServer - Client(Käyttäjä)" style="text;html=1;align=center;verticalAlign=middle;resizable=0;points=[];autosize=1;strokeColor=none;fillColor=none;" parent="1" vertex="1">
          <mxGeometry x="30" y="330" width="180" height="30" as="geometry" />
        </mxCell>
        <mxCell id="fzottvaVz5ZP-ddMzSGL-1" value="Node.js" style="text;html=1;align=center;verticalAlign=middle;resizable=0;points=[];autosize=1;strokeColor=none;fillColor=none;" vertex="1" parent="1">
          <mxGeometry x="30" y="300" width="60" height="30" as="geometry" />
        </mxCell>
        <mxCell id="fzottvaVz5ZP-ddMzSGL-2" value="React&lt;br&gt;" style="text;html=1;align=center;verticalAlign=middle;resizable=0;points=[];autosize=1;strokeColor=none;fillColor=none;" vertex="1" parent="1">
          <mxGeometry x="145" y="305" width="50" height="30" as="geometry" />
        </mxCell>
        <mxCell id="fzottvaVz5ZP-ddMzSGL-3" value="Protocolla? selvitä." style="text;html=1;align=center;verticalAlign=middle;resizable=0;points=[];autosize=1;strokeColor=none;fillColor=none;" vertex="1" parent="1">
          <mxGeometry x="380" y="410" width="120" height="30" as="geometry" />
        </mxCell>
        <mxCell id="fzottvaVz5ZP-ddMzSGL-5" value="" style="endArrow=none;html=1;rounded=0;exitX=0.5;exitY=-0.111;exitDx=0;exitDy=0;exitPerimeter=0;" edge="1" parent="1" source="fzottvaVz5ZP-ddMzSGL-3">
          <mxGeometry width="50" height="50" relative="1" as="geometry">
            <mxPoint x="380" y="260" as="sourcePoint" />
            <mxPoint x="440" y="360" as="targetPoint" />
          </mxGeometry>
        </mxCell>
      </root>
    </mxGraphModel>
  </diagram>
</mxfile>
